<?xml version="1.0" encoding="UTF-8"?>
<svg xmlns="http://www.w3.org/2000/svg" xmlns:xlink="http://www.w3.org/1999/xlink" width="32px" height="27px" viewBox="0 0 31 27" version="1.1">
<defs>
<clipPath id="clip1">
  <path d="M 0.0390625 0 L 31 0 L 31 26.921875 L 0.0390625 26.921875 Z M 0.0390625 0 "/>
</clipPath>
<clipPath id="clip2">
  <path d="M 3.660156 3.773438 L 27.417969 3.773438 L 27.417969 23.152344 L 3.660156 23.152344 Z M 3.660156 3.773438 "/>
</clipPath>
</defs>
<g id="surface1">
<g clip-path="url(#clip1)" clip-rule="nonzero">
<path style=" stroke:none;fill-rule:nonzero;fill:rgb(6.666667%,24.705882%,40.392157%);fill-opacity:1;" d="M 0.00390625 26.921875 L 0.00390625 0 L 31.074219 0 L 31.074219 26.921875 Z M 0.00390625 26.921875 "/>
<path style=" stroke:none;fill-rule:nonzero;fill:rgb(100%,100%,100%);fill-opacity:1;" d="M 0.613281 26.292969 L 0.613281 0.628906 L 30.464844 0.628906 L 30.464844 26.292969 Z M 0.613281 26.292969 "/>
</g>
<path style=" stroke:none;fill-rule:nonzero;fill:rgb(6.666667%,24.705882%,40.392157%);fill-opacity:1;" d="M 1.832031 25.039062 L 1.832031 1.886719 L 29.246094 1.886719 L 29.246094 25.039062 Z M 1.832031 25.039062 "/>
<g clip-path="url(#clip2)" clip-rule="nonzero">
<path style=" stroke:none;fill-rule:nonzero;fill:rgb(100%,100%,100%);fill-opacity:1;" d="M 12.011719 19.253906 C 12.855469 19.269531 13.585938 19.410156 14.203125 19.683594 C 14.824219 19.957031 15.410156 20.355469 15.96875 20.886719 L 14.160156 23.152344 C 13.511719 22.265625 12.8125 21.597656 12.070312 21.15625 C 11.320312 20.710938 10.382812 20.488281 9.25 20.488281 C 7.515625 20.488281 6.148438 19.785156 5.15625 18.375 C 4.160156 16.96875 3.660156 14.902344 3.660156 12.175781 C 3.660156 9.421875 4.164062 7.332031 5.167969 5.90625 C 6.167969 4.484375 7.582031 3.773438 9.40625 3.773438 C 11.234375 3.773438 12.648438 4.472656 13.652344 5.875 C 14.652344 7.273438 15.15625 9.367188 15.15625 12.152344 C 15.15625 14.085938 14.875 15.59375 14.316406 16.683594 C 13.757812 17.773438 12.992188 18.628906 12.011719 19.253906 Z M 6.691406 12.175781 C 6.691406 14.402344 6.917969 15.980469 7.371094 16.902344 C 7.824219 17.832031 8.503906 18.292969 9.40625 18.292969 C 10.34375 18.292969 11.035156 17.835938 11.480469 16.917969 C 11.925781 16 12.144531 14.410156 12.144531 12.152344 C 12.144531 9.929688 11.925781 8.347656 11.480469 7.414062 C 11.035156 6.480469 10.34375 6.015625 9.40625 6.015625 C 8.488281 6.015625 7.804688 6.480469 7.363281 7.414062 C 6.917969 8.347656 6.691406 9.9375 6.691406 12.175781 Z M 27.417969 20.234375 L 24.316406 20.234375 L 21.558594 13.71875 L 20.175781 13.71875 L 20.175781 20.234375 L 17.304688 20.234375 L 17.304688 4.097656 L 20.992188 4.097656 C 24.761719 4.097656 26.648438 5.679688 26.648438 8.839844 C 26.648438 9.820312 26.4375 10.6875 26.015625 11.445312 C 25.59375 12.199219 24.960938 12.769531 24.113281 13.160156 Z M 21.128906 11.570312 C 22.019531 11.570312 22.660156 11.351562 23.058594 10.917969 C 23.460938 10.480469 23.660156 9.789062 23.660156 8.839844 C 23.660156 7.953125 23.453125 7.300781 23.039062 6.886719 C 22.625 6.476562 21.941406 6.269531 20.992188 6.269531 L 20.175781 6.269531 L 20.175781 11.570312 Z M 21.128906 11.570312 "/>
</g>
</g>
</svg>
